<?xml version="1.0" encoding="utf-8"?>
<!-- Generator: Adobe Illustrator 24.2.3, SVG Export Plug-In . SVG Version: 6.00 Build 0)  -->
<svg version="1.1" id="Layer_1" xmlns="http://www.w3.org/2000/svg" xmlns:xlink="http://www.w3.org/1999/xlink" x="0px" y="0px"
	 viewBox="0 0 520 520" style="enable-background:new 0 0 520 520;" xml:space="preserve">
<style type="text/css">
	.st0{fill:#989898;}
</style>
<g>
	<path class="st0" d="M259.94,517.24c-62.95,0-125.9,0.56-188.83-0.39c-15.83-0.24-32.08-3.95-47.22-8.57
		C9.22,503.81,0.28,492.8,2.73,477.94c3.27-19.84,5.91-40.21,13.2-58.93c7.09-18.21,6.9-35.31,5.28-53.98
		c-2.8-32.27-4.11-64.87-2.48-97.18c1.55-30.96,19.72-56.68,40.32-80.51c8.08-9.35,16.52-18.5,25.54-27.1
		c6.01-5.73,6.28-9.32-0.72-14.68c-15.91-12.19-22.46-28.55-21.53-47.24c0.94-18.95,11.87-28.29,32.33-28.33
		c28.9-0.05,57.8-0.29,86.7,0.15c8.83,0.14,12.08-2.67,14.39-10.44c3.28-11.03,8.28-21.8,13.94-32.05
		c8.77-15.87,22-25.3,43.19-25.24c21.23,0.06,34.26,9.77,42.99,25.59c5.65,10.24,10.85,21,13.8,32.08
		c2.23,8.35,6.29,10.1,14.62,10.02c32.86-0.3,65.72-0.14,98.58-0.11c23.26,0.02,35.96,12.17,34.3,33.27
		c-1.36,17.22-7.85,32.58-23.18,43.46c-6.21,4.41-5.24,7-0.81,11.87c14.66,16.08,29.73,31.97,42.77,49.11
		c19.01,24.99,27.21,53.38,26.99,83.86c-0.2,27.05-0.17,53.88-6.04,80.81c-2.82,12.92,0.62,28.11,5.35,41.02
		c7.71,21.03,14.51,41.81,15.07,64.18c0.38,15.03-6.77,26.04-21.38,30.53c-15.49,4.76-32.14,8.49-48.36,8.75
		C385.05,517.83,322.49,517.24,259.94,517.24z M358.7,451.7c0.03-1.49,0.06-2.97,0.09-4.46c6.87,0,13.75,0.19,20.61-0.04
		c14.19-0.47,17.5-3.56,17.53-16.18c0.06-24.56,0.01-49.11,0.03-73.67c0-6.86-0.22-13.74,0.3-20.57c0.15-1.99,2.53-3.83,3.88-5.74
		c1.36,1.97,3.37,3.79,3.93,5.93c0.71,2.74,0.3,5.74,0.3,8.63c0.02,21.31,0.11,42.61-0.04,63.92c-0.04,5.83,1.03,9.68,8.93,9.6
		c24.14-0.26,48.29-0.17,72.44-0.04c6.7,0.03,7.52-2.7,4.8-7.35c-3.91-6.69-8.4-13.11-11.88-19.97c-1.85-3.64-12.15-11.22,3.8-9.95
		c0.97,0.08,3.17-3.71,3.37-5.81c2.67-27.6,6.14-55.18,7.29-82.83c1.43-34.4-10.78-65.48-33.49-92.81
		c-11.46-13.79-24.12-26.78-36.73-39.73c-1.9-1.95-7.27-3.27-9.73-2.26c-32.21,13.26-66.58,14.96-101.01,16.26
		c-17.19,0.65-17.26,0.33-17.42,16.36c-0.07,7.01,0.67,14.02-10.47,15.02c-2.07,0.19-5.02,4.46-5.3,7.06
		c-1.99,18.31-3.1,36.69-5.08,55c-1,9.28,2.03,12.73,12.9,12.53c33.64-0.6,67.29-0.38,100.94-0.17c30.66,0.2,27.87-4.4,28.43,26.26
		c0.19,10.15-3.39,14.21-15,13.92c-17.81-0.44-16.99-3.76-15.35,15.77c0.15,1.79,0.7,3.55,1.01,5.33c3.1,17.46,1,19.28-18.53,18.15
		c-6.84-0.4-9.13-2.83-8.21-8.79c1.1-7.14,1.77-14.33,2.77-21.49c0.89-6.32-1.47-9.33-9-9.25c-23.35,0.24-46.71,0.26-70.06-0.03
		c-7.13-0.09-9.23,2.5-7.99,8.44c2.81,13.43,5.2,26.94,8.55,40.25c1.08,4.31,1.92,9.33,10.21,9.72c3.34,0.16,6.48,8.21,9.22,12.9
		c1.74,2.97,2.5,6.4,3.86,9.57c0.89,2.09,2.05,4.08,3.09,6.11c-2.84-0.05-5.84,0.4-8.5-0.26c-4.94-1.24-10.14-2.47-14.37-4.94
		c-3.64-2.13-6.39-5.79-8.8-9.21c-0.68-0.96,0.98-4.84,2.04-5.03c7.2-1.23,2.08-2.73,0.64-4.86c-2.26-3.34-4.42-6.99-5.35-10.78
		c-3.46-14.04-6-28.27-9.81-42.22c-0.97-3.55-5.36-6.32-8.18-9.44c-2.69,3.31-7.44,6.46-7.75,9.95c-2.36,26.09-10.47,50.3-26.63,72
		c-2.89,3.88-7.52,6.68-11.35,9.98c1.3-4.55,1.45-9.79,4.1-13.55c14.03-19.84,22.15-41.4,24.72-64.8
		c1.41-12.79,0.58-13.7-13.33-13.71c-32.86-0.04-65.71,0.11-98.57-0.05c-30.34-0.15-27.7,3.66-27.72-25.68
		c-0.01-13.82,0.61-14.28,16.39-14.29c38-0.04,76.01-0.1,114.01,0.06c7.26,0.03,12.46-0.61,11.62-9.17
		c-1.9-19.4-3.2-38.86-5.15-58.26c-0.25-2.45-2.76-6.64-4.45-6.74c-12.48-0.71-11.59-8.49-11.56-16.33
		c0.06-15-0.07-14.69-17.14-15.33c-34.43-1.3-68.8-2.99-101.01-16.25c-2.46-1.01-7.79,0.32-9.72,2.26
		c-11.67,11.78-23.32,23.65-33.89,36.25c-16.51,19.68-30.24,41.14-33.66,66.08c-5.61,40.88-2.92,81.67,5.12,121.35
		c3.37-0.94,6.42-1.78,9.46-2.63c-0.48,2.94-0.22,6.21-1.59,8.75c-3.65,6.79-7.94,13.3-12.1,19.86c-3.97,6.27-2.64,8.94,5.83,8.84
		c23.75-0.28,47.5-0.29,71.25,0.01c7.76,0.1,10.47-2.49,10.34-9.49c-0.34-18.41-0.12-36.83-0.1-55.25
		c0.01-6.14-0.13-12.29,0.35-18.4c0.13-1.69,2.28-3.26,3.5-4.88c1.42,1.48,3.62,2.77,4.1,4.47c0.77,2.73,0.51,5.73,0.52,8.61
		c0.03,28.17,0.01,56.34,0.02,84.51c0.01,16.7,1.79,18.48,20.47,18.54c37.21,0.13,74.42,0.05,111.63,0.06
		c10.29,0,20.59-0.09,30.87,0.23c1.73,0.05,3.39,2.01,5.08,3.09c-1.65,0.69-3.29,1.92-4.96,1.96c-9.1,0.22-18.21,0.16-27.31,0.16
		c-44.57,0.01-89.15,0-137.42,0c9.32,2.16,15.74,4.92,22.16,4.95c76.8,0.3,153.59,0.27,230.39,0.04c5.75-0.02,11.49-2.26,17.24-3.46
		c-0.21-0.87-0.41-1.74-0.62-2.61C381.27,451.7,369.99,451.7,358.7,451.7z M259.99,508.19c64.07,0,128.15,0.43,192.21-0.34
		c13.86-0.17,28.01-3.58,41.36-7.42c10.65-3.06,16.36-11.62,15-22.18c-1.85-14.26-4.64-28.43-7.19-42.61
		c-1.15-6.39-5.45-8.73-12.59-8.65c-24.12,0.27-48.25,0.3-72.37-0.02c-8.04-0.11-11.07,2.18-11.19,9.88
		c-0.37,23.54-6.72,28.9-32.69,28.92c-73.96,0.04-147.92,0.03-221.88,0.01c-28.43-0.01-33-3.81-34.21-29.38
		c-0.29-6.09-1.99-9.42-9.47-9.36c-25.71,0.2-51.42-0.23-77.11,0.41c-3.77,0.09-9.9,4.17-10.68,7.29
		c-3.51,13.98-5.94,28.24-7.86,42.49c-1.62,12.01,5.05,20.87,17.26,24.11c13.09,3.47,26.88,6.42,40.4,6.56
		C132.64,508.57,196.32,508.2,259.99,508.19z M407.26,144.35c4.89-3.53,7.68-5.75,10.69-7.68c13.61-8.72,20.11-20.99,21.53-35.75
		c1.4-14.56-6.04-23.17-20.14-23.18c-106.45-0.04-212.9-0.04-319.34,0c-12.78,0-18.58,4.9-19.76,16.74
		c-1.44,14.46,3.02,27.08,14.75,37.31c2.46,2.14,4.48,4.71,6.7,7.08c-0.95,0.56-1.9,1.13-2.84,1.69
		c-19.38-10.87-25.49-27.95-25.85-48.07c-1.19,4.25-1.93,8.42-1.55,12.5c1.96,21.52,14.72,36.91,35.91,44.73
		c17.03,6.28,35.43,12.67,53.39,13.08c65.94,1.53,131.97,1.38,197.93,0.15c23.71-0.44,46.86-7.02,66.6-20.38
		c19.59-13.26,28.01-37.84,18.88-54.36C448.79,114.7,432.42,141.69,407.26,144.35z M252.07,69.78c8.28,0,16.66,0.7,24.77-0.35
		c3.19-0.41,8.17-4.73,8.2-7.32c0.13-11.42-0.24-23.02-2.33-34.26c-2.38-12.82-12.58-17.72-31.98-17.43
		c-16.37,0.24-25.42,5.72-27.91,18.04c-1.63,8.07-2.41,16.37-2.61,24.59c-0.4,16.73-0.13,16.74,17.67,16.75
		C242.62,69.81,247.35,69.81,252.07,69.78z M372.84,308.58c-0.02-1.5-0.04-2.99-0.06-4.49c8.16,0,16.32-0.03,24.48,0.01
		c5.68,0.03,11.19,0.57,11.37-7.26c0.18-7.78-4.41-8.7-11.27-8.68c-37.17,0.15-74.34,0.09-111.51,0.05
		c-5.83-0.01-10.93-0.2-11.1,7.53c-0.18,8.1,4.76,8.46,11.36,8.4c18.19-0.16,36.38-0.12,54.57,0.06c2.44,0.02,4.86,1.3,7.29,1.99
		c-2.53,1.07-4.95,2.62-7.61,3.1c-3.05,0.55-6.3,0.15-9.46,0.15c-17.57,0-35.14,0-52.71,0c0.01,0.68,0.03,1.36,0.04,2.04
		c41.78,0,83.56,0,125.34,0c0-0.97,0-1.94,0.01-2.9C393.34,308.58,383.09,308.58,372.84,308.58z M178.61,288.24
		c-18.96,0-37.92,0.13-56.88-0.07c-6.54-0.07-10.52,1.25-10.48,8.28c0.03,6.51,3.61,7.72,9.7,7.7c38.31-0.13,76.63-0.15,114.94,0.01
		c6.53,0.03,9.15-2.05,9.19-8.17c0.04-6.51-3.49-7.85-9.6-7.8C216.53,288.34,197.57,288.24,178.61,288.24z M261.41,178.17
		c-1.07-0.02-2.13-0.04-3.2-0.06c0,6.04,0.41,12.12-0.18,18.11c-0.28,2.88-2.48,5.6-3.79,8.4c-1.8,3.85-5.25,7.77-5.07,11.54
		c0.9,18.67,2.51,37.33,4.54,55.94c0.31,2.86,4.1,5.41,6.28,8.1c2.13-2.72,5.83-5.31,6.14-8.19c1.72-16.47,2.5-33.01,3.86-49.51
		c0.6-7.25,4.42-14.96-6.36-19.38c-1.69-0.69-1.97-5.14-2.12-7.88C261.19,189.56,261.41,183.86,261.41,178.17z M116.26,310.29
		c0.01,0.39,0.01,0.78,0.02,1.17c41.78,0,83.57,0,125.35,0c-0.01-0.39-0.02-0.78-0.02-1.17
		C199.83,310.29,158.04,310.29,116.26,310.29z"/>
	<path class="st0" d="M192.76,439.51c-1.39-1.11-3.35-1.96-3.36-2.84c-0.03-1.52,0.67-3.75,1.91-4.46
		c5.31-3.06,6.49-6.26,5.12-12.33c-0.74-3.29,5.16-7.82,8.06-11.79c2.27,1.89,4.53,3.8,6.82,5.68c1.14,0.94,2.34,1.82,3.51,2.73
		c2.32,1.82,4.63,3.64,6.95,5.45c-3.79,3.38-7.29,7.12-11.49,10c-2.48,1.7-6.19,1.85-9.15,3.08
		C198.33,436.2,195.79,437.86,192.76,439.51z"/>
	<path class="st0" d="M300.41,159.47c-26.32,13.51-169.13,2.11-186.48-14.37C173.81,164.83,236.36,156.71,300.41,159.47z"/>
</g>
</svg>
